<mxfile host="Electron" agent="Mozilla/5.0 (Windows NT 10.0; Win64; x64) AppleWebKit/537.36 (KHTML, like Gecko) draw.io/24.7.17 Chrome/128.0.6613.36 Electron/32.0.1 Safari/537.36" version="24.7.17">
  <diagram id="k7BzKgBpxcJTMvqbYtTQ" name="Sayfa -2">
    <mxGraphModel dx="1800" dy="1239" grid="0" gridSize="10" guides="1" tooltips="1" connect="1" arrows="1" fold="1" page="0" pageScale="1" pageWidth="827" pageHeight="1169" math="0" shadow="0">
      <root>
        <mxCell id="0" />
        <mxCell id="1" parent="0" />
        <mxCell id="ME21M69Lr1BE-cVbZ2gV-5" value="&lt;font color=&quot;#000000&quot;&gt;&lt;b&gt;System&lt;/b&gt;&lt;/font&gt;" style="shape=umlLifeline;perimeter=lifelinePerimeter;whiteSpace=wrap;html=1;container=1;dropTarget=0;collapsible=0;recursiveResize=0;outlineConnect=0;portConstraint=eastwest;newEdgeStyle={&quot;curved&quot;:0,&quot;rounded&quot;:0};labelBackgroundColor=none;" parent="1" vertex="1">
          <mxGeometry x="230" y="-244" width="100" height="1586" as="geometry" />
        </mxCell>
        <mxCell id="ME21M69Lr1BE-cVbZ2gV-28" value="" style="html=1;points=[[0,0,0,0,5],[0,1,0,0,-5],[1,0,0,0,5],[1,1,0,0,-5]];perimeter=orthogonalPerimeter;outlineConnect=0;targetShapes=umlLifeline;portConstraint=eastwest;newEdgeStyle={&quot;curved&quot;:0,&quot;rounded&quot;:0};labelBackgroundColor=none;" parent="ME21M69Lr1BE-cVbZ2gV-5" vertex="1">
          <mxGeometry x="45" y="285" width="10" height="846" as="geometry" />
        </mxCell>
        <mxCell id="O_zw_P4l1oHPS-b11njr-75" value="" style="html=1;points=[[0,0,0,0,5],[0,1,0,0,-5],[1,0,0,0,5],[1,1,0,0,-5]];perimeter=orthogonalPerimeter;outlineConnect=0;targetShapes=umlLifeline;portConstraint=eastwest;newEdgeStyle={&quot;curved&quot;:0,&quot;rounded&quot;:0};" vertex="1" parent="ME21M69Lr1BE-cVbZ2gV-5">
          <mxGeometry x="45" y="75" width="10" height="80" as="geometry" />
        </mxCell>
        <mxCell id="O_zw_P4l1oHPS-b11njr-82" value="" style="html=1;points=[[0,0,0,0,5],[0,1,0,0,-5],[1,0,0,0,5],[1,1,0,0,-5]];perimeter=orthogonalPerimeter;outlineConnect=0;targetShapes=umlLifeline;portConstraint=eastwest;newEdgeStyle={&quot;curved&quot;:0,&quot;rounded&quot;:0};" vertex="1" parent="ME21M69Lr1BE-cVbZ2gV-5">
          <mxGeometry x="47" y="1185" width="10" height="60" as="geometry" />
        </mxCell>
        <mxCell id="O_zw_P4l1oHPS-b11njr-112" value="" style="html=1;points=[[0,0,0,0,5],[0,1,0,0,-5],[1,0,0,0,5],[1,1,0,0,-5]];perimeter=orthogonalPerimeter;outlineConnect=0;targetShapes=umlLifeline;portConstraint=eastwest;newEdgeStyle={&quot;curved&quot;:0,&quot;rounded&quot;:0};" vertex="1" parent="ME21M69Lr1BE-cVbZ2gV-5">
          <mxGeometry x="47" y="1329" width="10" height="61" as="geometry" />
        </mxCell>
        <mxCell id="O_zw_P4l1oHPS-b11njr-115" value="" style="html=1;points=[[0,0,0,0,5],[0,1,0,0,-5],[1,0,0,0,5],[1,1,0,0,-5]];perimeter=orthogonalPerimeter;outlineConnect=0;targetShapes=umlLifeline;portConstraint=eastwest;newEdgeStyle={&quot;curved&quot;:0,&quot;rounded&quot;:0};" vertex="1" parent="ME21M69Lr1BE-cVbZ2gV-5">
          <mxGeometry x="45" y="1418" width="10" height="56" as="geometry" />
        </mxCell>
        <mxCell id="ME21M69Lr1BE-cVbZ2gV-10" value="" style="shape=umlLifeline;perimeter=lifelinePerimeter;whiteSpace=wrap;html=1;container=1;dropTarget=0;collapsible=0;recursiveResize=0;outlineConnect=0;portConstraint=eastwest;newEdgeStyle={&quot;curved&quot;:0,&quot;rounded&quot;:0};participant=umlActor;labelBackgroundColor=none;" parent="1" vertex="1">
          <mxGeometry x="-50" y="-244" width="29" height="1570" as="geometry" />
        </mxCell>
        <mxCell id="ME21M69Lr1BE-cVbZ2gV-39" value="" style="html=1;points=[[0,0,0,0,5],[0,1,0,0,-5],[1,0,0,0,5],[1,1,0,0,-5]];perimeter=orthogonalPerimeter;outlineConnect=0;targetShapes=umlLifeline;portConstraint=eastwest;newEdgeStyle={&quot;curved&quot;:0,&quot;rounded&quot;:0};labelBackgroundColor=none;" parent="ME21M69Lr1BE-cVbZ2gV-10" vertex="1">
          <mxGeometry x="10" y="286" width="10" height="232" as="geometry" />
        </mxCell>
        <mxCell id="O_zw_P4l1oHPS-b11njr-19" value="" style="html=1;points=[[0,0,0,0,5],[0,1,0,0,-5],[1,0,0,0,5],[1,1,0,0,-5]];perimeter=orthogonalPerimeter;outlineConnect=0;targetShapes=umlLifeline;portConstraint=eastwest;newEdgeStyle={&quot;curved&quot;:0,&quot;rounded&quot;:0};" vertex="1" parent="ME21M69Lr1BE-cVbZ2gV-10">
          <mxGeometry x="10" y="536" width="10" height="75" as="geometry" />
        </mxCell>
        <mxCell id="O_zw_P4l1oHPS-b11njr-20" value="" style="html=1;points=[[0,0,0,0,5],[0,1,0,0,-5],[1,0,0,0,5],[1,1,0,0,-5]];perimeter=orthogonalPerimeter;outlineConnect=0;targetShapes=umlLifeline;portConstraint=eastwest;newEdgeStyle={&quot;curved&quot;:0,&quot;rounded&quot;:0};" vertex="1" parent="ME21M69Lr1BE-cVbZ2gV-10">
          <mxGeometry x="10" y="647" width="10" height="28" as="geometry" />
        </mxCell>
        <mxCell id="O_zw_P4l1oHPS-b11njr-25" value="" style="html=1;points=[[0,0,0,0,5],[0,1,0,0,-5],[1,0,0,0,5],[1,1,0,0,-5]];perimeter=orthogonalPerimeter;outlineConnect=0;targetShapes=umlLifeline;portConstraint=eastwest;newEdgeStyle={&quot;curved&quot;:0,&quot;rounded&quot;:0};" vertex="1" parent="ME21M69Lr1BE-cVbZ2gV-10">
          <mxGeometry x="10" y="749" width="10" height="75" as="geometry" />
        </mxCell>
        <mxCell id="O_zw_P4l1oHPS-b11njr-27" value="&lt;span style=&quot;line-height: 115%;&quot;&gt;&lt;font style=&quot;font-size: 12px;&quot;&gt;viewChoosenCourses():&amp;nbsp;&lt;/font&gt;&lt;/span&gt;" style="html=1;verticalAlign=bottom;startArrow=oval;startFill=1;endArrow=block;startSize=8;curved=0;rounded=0;labelBackgroundColor=none;fontColor=default;" edge="1" parent="ME21M69Lr1BE-cVbZ2gV-10">
          <mxGeometry width="60" relative="1" as="geometry">
            <mxPoint x="20" y="763" as="sourcePoint" />
            <mxPoint x="325" y="763" as="targetPoint" />
          </mxGeometry>
        </mxCell>
        <mxCell id="O_zw_P4l1oHPS-b11njr-31" value="&lt;span style=&quot;font-size: 12px; line-height: 115%; font-family: Aptos, sans-serif;&quot;&gt;print Courses&lt;/span&gt;" style="html=1;verticalAlign=bottom;endArrow=open;dashed=1;endSize=8;curved=0;rounded=0;exitX=0;exitY=0.427;exitDx=0;exitDy=0;exitPerimeter=0;" edge="1" parent="ME21M69Lr1BE-cVbZ2gV-10">
          <mxGeometry relative="1" as="geometry">
            <mxPoint x="325" y="812.2830000000001" as="sourcePoint" />
            <mxPoint x="20" y="812.2830000000001" as="targetPoint" />
          </mxGeometry>
        </mxCell>
        <mxCell id="O_zw_P4l1oHPS-b11njr-34" value="" style="html=1;points=[[0,0,0,0,5],[0,1,0,0,-5],[1,0,0,0,5],[1,1,0,0,-5]];perimeter=orthogonalPerimeter;outlineConnect=0;targetShapes=umlLifeline;portConstraint=eastwest;newEdgeStyle={&quot;curved&quot;:0,&quot;rounded&quot;:0};" vertex="1" parent="ME21M69Lr1BE-cVbZ2gV-10">
          <mxGeometry x="10" y="844" width="10" height="75" as="geometry" />
        </mxCell>
        <mxCell id="O_zw_P4l1oHPS-b11njr-35" value="&lt;span style=&quot;line-height: 115%;&quot;&gt;&lt;font style=&quot;font-size: 12px;&quot;&gt;viewSchedule():&amp;nbsp;&lt;/font&gt;&lt;/span&gt;" style="html=1;verticalAlign=bottom;startArrow=oval;startFill=1;endArrow=block;startSize=8;curved=0;rounded=0;labelBackgroundColor=none;fontColor=default;" edge="1" parent="ME21M69Lr1BE-cVbZ2gV-10">
          <mxGeometry width="60" relative="1" as="geometry">
            <mxPoint x="20" y="858" as="sourcePoint" />
            <mxPoint x="325" y="858" as="targetPoint" />
          </mxGeometry>
        </mxCell>
        <mxCell id="O_zw_P4l1oHPS-b11njr-36" value="&lt;span style=&quot;font-size: 12px; line-height: 115%; font-family: Aptos, sans-serif;&quot;&gt;print Schedule&lt;/span&gt;" style="html=1;verticalAlign=bottom;endArrow=open;dashed=1;endSize=8;curved=0;rounded=0;exitX=0;exitY=0.427;exitDx=0;exitDy=0;exitPerimeter=0;" edge="1" parent="ME21M69Lr1BE-cVbZ2gV-10">
          <mxGeometry relative="1" as="geometry">
            <mxPoint x="325" y="907.2830000000001" as="sourcePoint" />
            <mxPoint x="20" y="907.2830000000001" as="targetPoint" />
          </mxGeometry>
        </mxCell>
        <mxCell id="O_zw_P4l1oHPS-b11njr-42" value="" style="html=1;points=[[0,0,0,0,5],[0,1,0,0,-5],[1,0,0,0,5],[1,1,0,0,-5]];perimeter=orthogonalPerimeter;outlineConnect=0;targetShapes=umlLifeline;portConstraint=eastwest;newEdgeStyle={&quot;curved&quot;:0,&quot;rounded&quot;:0};" vertex="1" parent="ME21M69Lr1BE-cVbZ2gV-10">
          <mxGeometry x="10" y="697" width="10" height="28" as="geometry" />
        </mxCell>
        <mxCell id="O_zw_P4l1oHPS-b11njr-46" value="" style="html=1;points=[[0,0,0,0,5],[0,1,0,0,-5],[1,0,0,0,5],[1,1,0,0,-5]];perimeter=orthogonalPerimeter;outlineConnect=0;targetShapes=umlLifeline;portConstraint=eastwest;newEdgeStyle={&quot;curved&quot;:0,&quot;rounded&quot;:0};" vertex="1" parent="ME21M69Lr1BE-cVbZ2gV-10">
          <mxGeometry x="9" y="936" width="10" height="180" as="geometry" />
        </mxCell>
        <mxCell id="O_zw_P4l1oHPS-b11njr-81" value="" style="html=1;points=[[0,0,0,0,5],[0,1,0,0,-5],[1,0,0,0,5],[1,1,0,0,-5]];perimeter=orthogonalPerimeter;outlineConnect=0;targetShapes=umlLifeline;portConstraint=eastwest;newEdgeStyle={&quot;curved&quot;:0,&quot;rounded&quot;:0};" vertex="1" parent="ME21M69Lr1BE-cVbZ2gV-10">
          <mxGeometry x="9" y="1183" width="10" height="54" as="geometry" />
        </mxCell>
        <mxCell id="O_zw_P4l1oHPS-b11njr-90" value="" style="html=1;points=[[0,0,0,0,5],[0,1,0,0,-5],[1,0,0,0,5],[1,1,0,0,-5]];perimeter=orthogonalPerimeter;outlineConnect=0;targetShapes=umlLifeline;portConstraint=eastwest;newEdgeStyle={&quot;curved&quot;:0,&quot;rounded&quot;:0};" vertex="1" parent="ME21M69Lr1BE-cVbZ2gV-10">
          <mxGeometry x="10" y="1254" width="10" height="54" as="geometry" />
        </mxCell>
        <mxCell id="O_zw_P4l1oHPS-b11njr-111" value="" style="html=1;points=[[0,0,0,0,5],[0,1,0,0,-5],[1,0,0,0,5],[1,1,0,0,-5]];perimeter=orthogonalPerimeter;outlineConnect=0;targetShapes=umlLifeline;portConstraint=eastwest;newEdgeStyle={&quot;curved&quot;:0,&quot;rounded&quot;:0};" vertex="1" parent="ME21M69Lr1BE-cVbZ2gV-10">
          <mxGeometry x="10" y="1336" width="10" height="48" as="geometry" />
        </mxCell>
        <mxCell id="O_zw_P4l1oHPS-b11njr-114" value="" style="html=1;points=[[0,0,0,0,5],[0,1,0,0,-5],[1,0,0,0,5],[1,1,0,0,-5]];perimeter=orthogonalPerimeter;outlineConnect=0;targetShapes=umlLifeline;portConstraint=eastwest;newEdgeStyle={&quot;curved&quot;:0,&quot;rounded&quot;:0};" vertex="1" parent="ME21M69Lr1BE-cVbZ2gV-10">
          <mxGeometry x="10" y="1423" width="10" height="56" as="geometry" />
        </mxCell>
        <mxCell id="ME21M69Lr1BE-cVbZ2gV-13" value="&lt;b style=&quot;&quot;&gt;Student&lt;/b&gt;" style="text;html=1;align=center;verticalAlign=middle;resizable=0;points=[];autosize=1;strokeColor=none;fillColor=none;labelBackgroundColor=none;" parent="1" vertex="1">
          <mxGeometry x="-67" y="-205" width="63" height="26" as="geometry" />
        </mxCell>
        <mxCell id="ME21M69Lr1BE-cVbZ2gV-16" value="" style="shape=umlLifeline;perimeter=lifelinePerimeter;whiteSpace=wrap;html=1;container=1;dropTarget=0;collapsible=0;recursiveResize=0;outlineConnect=0;portConstraint=eastwest;newEdgeStyle={&quot;curved&quot;:0,&quot;rounded&quot;:0};participant=umlActor;labelBackgroundColor=none;" parent="1" vertex="1">
          <mxGeometry x="444" y="-244" width="29" height="1639" as="geometry" />
        </mxCell>
        <mxCell id="O_zw_P4l1oHPS-b11njr-68" value="" style="html=1;points=[[0,0,0,0,5],[0,1,0,0,-5],[1,0,0,0,5],[1,1,0,0,-5]];perimeter=orthogonalPerimeter;outlineConnect=0;targetShapes=umlLifeline;portConstraint=eastwest;newEdgeStyle={&quot;curved&quot;:0,&quot;rounded&quot;:0};" vertex="1" parent="ME21M69Lr1BE-cVbZ2gV-16">
          <mxGeometry x="10" y="78" width="10" height="80" as="geometry" />
        </mxCell>
        <mxCell id="ME21M69Lr1BE-cVbZ2gV-17" value="&lt;b style=&quot;&quot;&gt;Scheduler&lt;/b&gt;" style="text;html=1;align=center;verticalAlign=middle;resizable=0;points=[];autosize=1;labelBackgroundColor=none;" parent="1" vertex="1">
          <mxGeometry x="420.5" y="-205" width="76" height="26" as="geometry" />
        </mxCell>
        <mxCell id="ME21M69Lr1BE-cVbZ2gV-19" value="&lt;font color=&quot;#000000&quot;&gt;&lt;b&gt;Course&lt;/b&gt;&lt;/font&gt;" style="shape=umlLifeline;perimeter=lifelinePerimeter;whiteSpace=wrap;html=1;container=1;dropTarget=0;collapsible=0;recursiveResize=0;outlineConnect=0;portConstraint=eastwest;newEdgeStyle={&quot;curved&quot;:0,&quot;rounded&quot;:0};labelBackgroundColor=none;" parent="1" vertex="1">
          <mxGeometry x="570" y="-244" width="100" height="1619" as="geometry" />
        </mxCell>
        <mxCell id="O_zw_P4l1oHPS-b11njr-70" value="" style="html=1;points=[[0,0,0,0,5],[0,1,0,0,-5],[1,0,0,0,5],[1,1,0,0,-5]];perimeter=orthogonalPerimeter;outlineConnect=0;targetShapes=umlLifeline;portConstraint=eastwest;newEdgeStyle={&quot;curved&quot;:0,&quot;rounded&quot;:0};" vertex="1" parent="ME21M69Lr1BE-cVbZ2gV-19">
          <mxGeometry x="45" y="80" width="10" height="80" as="geometry" />
        </mxCell>
        <mxCell id="ME21M69Lr1BE-cVbZ2gV-21" value="&lt;font color=&quot;#000000&quot;&gt;&lt;b&gt;Database(json)&lt;/b&gt;&lt;/font&gt;" style="shape=umlLifeline;perimeter=lifelinePerimeter;whiteSpace=wrap;html=1;container=1;dropTarget=0;collapsible=0;recursiveResize=0;outlineConnect=0;portConstraint=eastwest;newEdgeStyle={&quot;curved&quot;:0,&quot;rounded&quot;:0};labelBackgroundColor=none;" parent="1" vertex="1">
          <mxGeometry x="815" y="-244" width="100" height="1628" as="geometry" />
        </mxCell>
        <mxCell id="ME21M69Lr1BE-cVbZ2gV-35" value="" style="html=1;points=[[0,0,0,0,5],[0,1,0,0,-5],[1,0,0,0,5],[1,1,0,0,-5]];perimeter=orthogonalPerimeter;outlineConnect=0;targetShapes=umlLifeline;portConstraint=eastwest;newEdgeStyle={&quot;curved&quot;:0,&quot;rounded&quot;:0};labelBackgroundColor=none;" parent="ME21M69Lr1BE-cVbZ2gV-21" vertex="1">
          <mxGeometry x="45" y="322" width="10" height="80" as="geometry" />
        </mxCell>
        <mxCell id="ME21M69Lr1BE-cVbZ2gV-59" value="" style="html=1;points=[[0,0,0,0,5],[0,1,0,0,-5],[1,0,0,0,5],[1,1,0,0,-5]];perimeter=orthogonalPerimeter;outlineConnect=0;targetShapes=umlLifeline;portConstraint=eastwest;newEdgeStyle={&quot;curved&quot;:0,&quot;rounded&quot;:0};labelBackgroundColor=none;" parent="ME21M69Lr1BE-cVbZ2gV-21" vertex="1">
          <mxGeometry x="45" y="549" width="10" height="53" as="geometry" />
        </mxCell>
        <mxCell id="O_zw_P4l1oHPS-b11njr-23" value="" style="html=1;points=[[0,0,0,0,5],[0,1,0,0,-5],[1,0,0,0,5],[1,1,0,0,-5]];perimeter=orthogonalPerimeter;outlineConnect=0;targetShapes=umlLifeline;portConstraint=eastwest;newEdgeStyle={&quot;curved&quot;:0,&quot;rounded&quot;:0};" vertex="1" parent="ME21M69Lr1BE-cVbZ2gV-21">
          <mxGeometry x="45" y="659" width="10" height="34" as="geometry" />
        </mxCell>
        <mxCell id="O_zw_P4l1oHPS-b11njr-26" value="" style="html=1;points=[[0,0,0,0,5],[0,1,0,0,-5],[1,0,0,0,5],[1,1,0,0,-5]];perimeter=orthogonalPerimeter;outlineConnect=0;targetShapes=umlLifeline;portConstraint=eastwest;newEdgeStyle={&quot;curved&quot;:0,&quot;rounded&quot;:0};labelBackgroundColor=none;" vertex="1" parent="ME21M69Lr1BE-cVbZ2gV-21">
          <mxGeometry x="45" y="758" width="10" height="53" as="geometry" />
        </mxCell>
        <mxCell id="O_zw_P4l1oHPS-b11njr-28" value="&lt;font style=&quot;font-size: 12px;&quot;&gt;ChoosenCourses()&lt;/font&gt;" style="html=1;verticalAlign=bottom;startArrow=oval;startFill=1;endArrow=block;startSize=8;curved=0;rounded=0;" edge="1" parent="ME21M69Lr1BE-cVbZ2gV-21">
          <mxGeometry width="60" relative="1" as="geometry">
            <mxPoint x="-530" y="776" as="sourcePoint" />
            <mxPoint x="45" y="776" as="targetPoint" />
          </mxGeometry>
        </mxCell>
        <mxCell id="O_zw_P4l1oHPS-b11njr-29" value="Text" style="edgeLabel;html=1;align=center;verticalAlign=middle;resizable=0;points=[];" vertex="1" connectable="0" parent="O_zw_P4l1oHPS-b11njr-28">
          <mxGeometry x="0.0102" y="-14" relative="1" as="geometry">
            <mxPoint as="offset" />
          </mxGeometry>
        </mxCell>
        <mxCell id="O_zw_P4l1oHPS-b11njr-30" value="&lt;span style=&quot;font-size: 12px; line-height: 115%; font-family: Aptos, sans-serif;&quot;&gt;List&amp;lt;Course&amp;gt;&lt;/span&gt;" style="html=1;verticalAlign=bottom;endArrow=open;dashed=1;endSize=8;curved=0;rounded=0;" edge="1" parent="ME21M69Lr1BE-cVbZ2gV-21">
          <mxGeometry relative="1" as="geometry">
            <mxPoint x="45" y="802" as="sourcePoint" />
            <mxPoint x="-530" y="802" as="targetPoint" />
          </mxGeometry>
        </mxCell>
        <mxCell id="O_zw_P4l1oHPS-b11njr-37" value="" style="html=1;points=[[0,0,0,0,5],[0,1,0,0,-5],[1,0,0,0,5],[1,1,0,0,-5]];perimeter=orthogonalPerimeter;outlineConnect=0;targetShapes=umlLifeline;portConstraint=eastwest;newEdgeStyle={&quot;curved&quot;:0,&quot;rounded&quot;:0};labelBackgroundColor=none;" vertex="1" parent="ME21M69Lr1BE-cVbZ2gV-21">
          <mxGeometry x="45" y="849" width="10" height="53" as="geometry" />
        </mxCell>
        <mxCell id="O_zw_P4l1oHPS-b11njr-38" value="&lt;font style=&quot;font-size: 12px;&quot;&gt;Schedule()&lt;/font&gt;" style="html=1;verticalAlign=bottom;startArrow=oval;startFill=1;endArrow=block;startSize=8;curved=0;rounded=0;" edge="1" parent="ME21M69Lr1BE-cVbZ2gV-21">
          <mxGeometry width="60" relative="1" as="geometry">
            <mxPoint x="-530" y="867" as="sourcePoint" />
            <mxPoint x="45" y="867" as="targetPoint" />
          </mxGeometry>
        </mxCell>
        <mxCell id="O_zw_P4l1oHPS-b11njr-39" value="Text" style="edgeLabel;html=1;align=center;verticalAlign=middle;resizable=0;points=[];" vertex="1" connectable="0" parent="O_zw_P4l1oHPS-b11njr-38">
          <mxGeometry x="0.0102" y="-14" relative="1" as="geometry">
            <mxPoint as="offset" />
          </mxGeometry>
        </mxCell>
        <mxCell id="O_zw_P4l1oHPS-b11njr-40" value="&lt;span style=&quot;font-size: 12px; line-height: 115%; font-family: Aptos, sans-serif;&quot;&gt;List&amp;lt;Schedule&amp;gt;&lt;/span&gt;" style="html=1;verticalAlign=bottom;endArrow=open;dashed=1;endSize=8;curved=0;rounded=0;" edge="1" parent="ME21M69Lr1BE-cVbZ2gV-21">
          <mxGeometry relative="1" as="geometry">
            <mxPoint x="45" y="893" as="sourcePoint" />
            <mxPoint x="-530" y="893" as="targetPoint" />
          </mxGeometry>
        </mxCell>
        <mxCell id="O_zw_P4l1oHPS-b11njr-44" value="" style="html=1;points=[[0,0,0,0,5],[0,1,0,0,-5],[1,0,0,0,5],[1,1,0,0,-5]];perimeter=orthogonalPerimeter;outlineConnect=0;targetShapes=umlLifeline;portConstraint=eastwest;newEdgeStyle={&quot;curved&quot;:0,&quot;rounded&quot;:0};" vertex="1" parent="ME21M69Lr1BE-cVbZ2gV-21">
          <mxGeometry x="45" y="702" width="10" height="24" as="geometry" />
        </mxCell>
        <mxCell id="O_zw_P4l1oHPS-b11njr-71" value="" style="html=1;points=[[0,0,0,0,5],[0,1,0,0,-5],[1,0,0,0,5],[1,1,0,0,-5]];perimeter=orthogonalPerimeter;outlineConnect=0;targetShapes=umlLifeline;portConstraint=eastwest;newEdgeStyle={&quot;curved&quot;:0,&quot;rounded&quot;:0};" vertex="1" parent="ME21M69Lr1BE-cVbZ2gV-21">
          <mxGeometry x="45" y="105" width="10" height="80" as="geometry" />
        </mxCell>
        <mxCell id="ME21M69Lr1BE-cVbZ2gV-22" value="&lt;font color=&quot;#000000&quot;&gt;&lt;b&gt;CourseSection&lt;/b&gt;&lt;/font&gt;" style="shape=umlLifeline;perimeter=lifelinePerimeter;whiteSpace=wrap;html=1;container=1;dropTarget=0;collapsible=0;recursiveResize=0;outlineConnect=0;portConstraint=eastwest;newEdgeStyle={&quot;curved&quot;:0,&quot;rounded&quot;:0};labelBackgroundColor=none;" parent="1" vertex="1">
          <mxGeometry x="989" y="-244" width="100" height="1595" as="geometry" />
        </mxCell>
        <mxCell id="ME21M69Lr1BE-cVbZ2gV-43" value="" style="html=1;points=[[0,0,0,0,5],[0,1,0,0,-5],[1,0,0,0,5],[1,1,0,0,-5]];perimeter=orthogonalPerimeter;outlineConnect=0;targetShapes=umlLifeline;portConstraint=eastwest;newEdgeStyle={&quot;curved&quot;:0,&quot;rounded&quot;:0};labelBackgroundColor=none;" parent="ME21M69Lr1BE-cVbZ2gV-22" vertex="1">
          <mxGeometry x="45" y="949" width="10" height="144" as="geometry" />
        </mxCell>
        <mxCell id="O_zw_P4l1oHPS-b11njr-72" value="" style="html=1;points=[[0,0,0,0,5],[0,1,0,0,-5],[1,0,0,0,5],[1,1,0,0,-5]];perimeter=orthogonalPerimeter;outlineConnect=0;targetShapes=umlLifeline;portConstraint=eastwest;newEdgeStyle={&quot;curved&quot;:0,&quot;rounded&quot;:0};" vertex="1" parent="ME21M69Lr1BE-cVbZ2gV-22">
          <mxGeometry x="45" y="82" width="10" height="80" as="geometry" />
        </mxCell>
        <mxCell id="ME21M69Lr1BE-cVbZ2gV-29" value="login(personID, password)" style="html=1;verticalAlign=bottom;startArrow=oval;endArrow=block;startSize=8;curved=0;rounded=0;labelBackgroundColor=none;fontColor=default;" parent="1" target="ME21M69Lr1BE-cVbZ2gV-28" edge="1">
          <mxGeometry relative="1" as="geometry">
            <mxPoint x="-30" y="57" as="sourcePoint" />
            <mxPoint x="275" y="40.00000000000318" as="targetPoint" />
          </mxGeometry>
        </mxCell>
        <mxCell id="ME21M69Lr1BE-cVbZ2gV-36" value="&lt;font style=&quot;font-size: 12px;&quot;&gt;validateUserCredentials()&lt;/font&gt;" style="html=1;verticalAlign=bottom;endArrow=block;curved=0;rounded=0;labelBackgroundColor=none;fontColor=default;" parent="1" target="ME21M69Lr1BE-cVbZ2gV-35" edge="1">
          <mxGeometry relative="1" as="geometry">
            <mxPoint x="285" y="81" as="sourcePoint" />
            <mxPoint x="1015" y="81" as="targetPoint" />
          </mxGeometry>
        </mxCell>
        <mxCell id="ME21M69Lr1BE-cVbZ2gV-37" value="&lt;font style=&quot;font-size: 12px;&quot;&gt;return validation result&lt;/font&gt;" style="html=1;verticalAlign=bottom;endArrow=open;dashed=1;endSize=8;curved=0;rounded=0;labelBackgroundColor=none;fontColor=default;" parent="1" source="ME21M69Lr1BE-cVbZ2gV-35" target="ME21M69Lr1BE-cVbZ2gV-28" edge="1">
          <mxGeometry relative="1" as="geometry">
            <mxPoint x="224.5" y="109" as="targetPoint" />
            <mxPoint x="872" y="109" as="sourcePoint" />
          </mxGeometry>
        </mxCell>
        <mxCell id="O_zw_P4l1oHPS-b11njr-1" value="alt" style="shape=umlFrame;whiteSpace=wrap;html=1;pointerEvents=0;labelBackgroundColor=none;" vertex="1" parent="1">
          <mxGeometry x="-48" y="121" width="354" height="127" as="geometry" />
        </mxCell>
        <mxCell id="O_zw_P4l1oHPS-b11njr-2" value="" style="line;strokeWidth=1;fillColor=none;align=left;verticalAlign=middle;spacingTop=-1;spacingLeft=3;spacingRight=3;rotatable=0;labelPosition=right;points=[];portConstraint=eastwest;dashed=1;labelBackgroundColor=none;" vertex="1" parent="1">
          <mxGeometry x="-48" y="195" width="351" height="8" as="geometry" />
        </mxCell>
        <mxCell id="O_zw_P4l1oHPS-b11njr-3" value="loginInfo == true" style="text;html=1;align=center;verticalAlign=middle;resizable=0;points=[];autosize=1;strokeColor=none;fillColor=none;labelBackgroundColor=none;" vertex="1" parent="1">
          <mxGeometry x="12" y="121" width="105" height="26" as="geometry" />
        </mxCell>
        <mxCell id="O_zw_P4l1oHPS-b11njr-4" value="loginInfo == false" style="text;html=1;align=center;verticalAlign=middle;resizable=0;points=[];autosize=1;strokeColor=none;fillColor=none;labelBackgroundColor=none;" vertex="1" parent="1">
          <mxGeometry x="-33" y="200" width="109" height="26" as="geometry" />
        </mxCell>
        <mxCell id="O_zw_P4l1oHPS-b11njr-5" value="&lt;font style=&quot;font-size: 12px;&quot;&gt;print Error message&lt;/font&gt;" style="html=1;verticalAlign=bottom;endArrow=open;endSize=8;curved=0;rounded=0;dashed=1;labelBackgroundColor=none;fontColor=default;" edge="1" parent="1">
          <mxGeometry relative="1" as="geometry">
            <mxPoint x="274" y="229.5" as="sourcePoint" />
            <mxPoint x="-30" y="229.5" as="targetPoint" />
          </mxGeometry>
        </mxCell>
        <mxCell id="O_zw_P4l1oHPS-b11njr-6" value="loop" style="shape=umlFrame;whiteSpace=wrap;html=1;pointerEvents=0;labelBackgroundColor=none;" vertex="1" parent="1">
          <mxGeometry x="-106" y="25" width="427" height="241" as="geometry" />
        </mxCell>
        <mxCell id="O_zw_P4l1oHPS-b11njr-8" value="&lt;font style=&quot;font-size: 12px;&quot;&gt;print succesful message&lt;/font&gt;" style="html=1;verticalAlign=bottom;endArrow=open;dashed=1;endSize=8;curved=0;rounded=0;labelBackgroundColor=none;fontColor=default;" edge="1" parent="1">
          <mxGeometry relative="1" as="geometry">
            <mxPoint x="274" y="170.5" as="sourcePoint" />
            <mxPoint x="-30" y="170.5" as="targetPoint" />
          </mxGeometry>
        </mxCell>
        <mxCell id="O_zw_P4l1oHPS-b11njr-9" value="&lt;font style=&quot;font-size: 12px;&quot;&gt;Entry the system&lt;/font&gt;" style="html=1;verticalAlign=bottom;startArrow=oval;startFill=1;endArrow=block;startSize=8;curved=0;rounded=0;labelBackgroundColor=none;fontColor=default;" edge="1" parent="1">
          <mxGeometry width="60" relative="1" as="geometry">
            <mxPoint x="-30" y="190" as="sourcePoint" />
            <mxPoint x="274" y="190" as="targetPoint" />
            <mxPoint as="offset" />
          </mxGeometry>
        </mxCell>
        <mxCell id="O_zw_P4l1oHPS-b11njr-10" value="&lt;span style=&quot;line-height: 115%;&quot;&gt;&lt;font style=&quot;font-size: 12px;&quot;&gt;viewChoosableCourses():&amp;nbsp;&lt;/font&gt;&lt;/span&gt;" style="html=1;verticalAlign=bottom;startArrow=oval;startFill=1;endArrow=block;startSize=8;curved=0;rounded=0;labelBackgroundColor=none;fontColor=default;" edge="1" parent="1" target="ME21M69Lr1BE-cVbZ2gV-28">
          <mxGeometry width="60" relative="1" as="geometry">
            <mxPoint x="-30" y="306" as="sourcePoint" />
            <mxPoint x="220" y="306" as="targetPoint" />
          </mxGeometry>
        </mxCell>
        <mxCell id="O_zw_P4l1oHPS-b11njr-14" value="&lt;font style=&quot;font-size: 12px;&quot;&gt;ChoosableCourses()&lt;/font&gt;" style="html=1;verticalAlign=bottom;startArrow=oval;startFill=1;endArrow=block;startSize=8;curved=0;rounded=0;" edge="1" parent="1">
          <mxGeometry width="60" relative="1" as="geometry">
            <mxPoint x="285" y="323" as="sourcePoint" />
            <mxPoint x="860" y="323" as="targetPoint" />
          </mxGeometry>
        </mxCell>
        <mxCell id="O_zw_P4l1oHPS-b11njr-16" value="Text" style="edgeLabel;html=1;align=center;verticalAlign=middle;resizable=0;points=[];" vertex="1" connectable="0" parent="O_zw_P4l1oHPS-b11njr-14">
          <mxGeometry x="0.0102" y="-14" relative="1" as="geometry">
            <mxPoint as="offset" />
          </mxGeometry>
        </mxCell>
        <mxCell id="O_zw_P4l1oHPS-b11njr-15" value="&lt;span style=&quot;font-size: 12px; line-height: 115%; font-family: Aptos, sans-serif;&quot;&gt;List&amp;lt;Course&amp;gt;&lt;/span&gt;" style="html=1;verticalAlign=bottom;endArrow=open;dashed=1;endSize=8;curved=0;rounded=0;" edge="1" parent="1">
          <mxGeometry relative="1" as="geometry">
            <mxPoint x="860" y="349" as="sourcePoint" />
            <mxPoint x="285" y="349" as="targetPoint" />
          </mxGeometry>
        </mxCell>
        <mxCell id="O_zw_P4l1oHPS-b11njr-18" value="&lt;span style=&quot;font-size: 12px; line-height: 115%; font-family: Aptos, sans-serif;&quot;&gt;print Courses&lt;/span&gt;" style="html=1;verticalAlign=bottom;endArrow=open;dashed=1;endSize=8;curved=0;rounded=0;exitX=0;exitY=0.427;exitDx=0;exitDy=0;exitPerimeter=0;" edge="1" parent="1">
          <mxGeometry relative="1" as="geometry">
            <mxPoint x="275" y="355.28300000000013" as="sourcePoint" />
            <mxPoint x="-30" y="355.28300000000013" as="targetPoint" />
          </mxGeometry>
        </mxCell>
        <mxCell id="O_zw_P4l1oHPS-b11njr-21" value="&lt;span style=&quot;font-size: 12px; line-height: 115%; font-family: Aptos, sans-serif;&quot;&gt;enrollCourse(student:&lt;br&gt;Student, courseSection: CourseSection)&lt;/span&gt;" style="html=1;verticalAlign=bottom;startArrow=oval;startFill=1;endArrow=block;startSize=8;curved=0;rounded=0;" edge="1" parent="1">
          <mxGeometry width="60" relative="1" as="geometry">
            <mxPoint x="-30" y="418" as="sourcePoint" />
            <mxPoint x="275" y="418" as="targetPoint" />
          </mxGeometry>
        </mxCell>
        <mxCell id="O_zw_P4l1oHPS-b11njr-24" value="&lt;font style=&quot;font-size: 12px;&quot;&gt;changeState()&lt;/font&gt;" style="html=1;verticalAlign=bottom;startArrow=oval;startFill=1;endArrow=block;startSize=8;curved=0;rounded=0;" edge="1" parent="1">
          <mxGeometry width="60" relative="1" as="geometry">
            <mxPoint x="285" y="430.5000000000002" as="sourcePoint" />
            <mxPoint x="860" y="430.5000000000002" as="targetPoint" />
          </mxGeometry>
        </mxCell>
        <mxCell id="O_zw_P4l1oHPS-b11njr-43" value="&lt;span style=&quot;font-size: 12px; line-height: 115%; font-family: Aptos, sans-serif;&quot;&gt;dropCourse(student:&lt;br/&gt;Student, courseSection: CourseSection)&amp;nbsp;&lt;/span&gt;" style="html=1;verticalAlign=bottom;startArrow=oval;startFill=1;endArrow=block;startSize=8;curved=0;rounded=0;" edge="1" parent="1" source="O_zw_P4l1oHPS-b11njr-42" target="ME21M69Lr1BE-cVbZ2gV-28">
          <mxGeometry width="60" relative="1" as="geometry">
            <mxPoint x="21" y="485" as="sourcePoint" />
            <mxPoint x="725" y="471" as="targetPoint" />
          </mxGeometry>
        </mxCell>
        <mxCell id="O_zw_P4l1oHPS-b11njr-45" value="&lt;font style=&quot;font-size: 12px;&quot;&gt;changeState()&lt;/font&gt;" style="html=1;verticalAlign=bottom;startArrow=oval;startFill=1;endArrow=block;startSize=8;curved=0;rounded=0;entryX=0;entryY=1;entryDx=0;entryDy=-5;entryPerimeter=0;" edge="1" parent="1">
          <mxGeometry width="60" relative="1" as="geometry">
            <mxPoint x="285" y="472" as="sourcePoint" />
            <mxPoint x="860" y="472" as="targetPoint" />
          </mxGeometry>
        </mxCell>
        <mxCell id="O_zw_P4l1oHPS-b11njr-47" value="&lt;font style=&quot;font-size: 12px;&quot;&gt;approveToAdvisor&lt;/font&gt;" style="html=1;verticalAlign=bottom;startArrow=oval;startFill=1;endArrow=block;startSize=8;curved=0;rounded=0;" edge="1" parent="1">
          <mxGeometry width="60" relative="1" as="geometry">
            <mxPoint x="-31" y="708" as="sourcePoint" />
            <mxPoint x="275" y="708" as="targetPoint" />
          </mxGeometry>
        </mxCell>
        <mxCell id="O_zw_P4l1oHPS-b11njr-49" value="" style="shape=umlLifeline;perimeter=lifelinePerimeter;whiteSpace=wrap;html=1;container=1;dropTarget=0;collapsible=0;recursiveResize=0;outlineConnect=0;portConstraint=eastwest;newEdgeStyle={&quot;curved&quot;:0,&quot;rounded&quot;:0};participant=umlActor;labelBackgroundColor=none;" vertex="1" parent="1">
          <mxGeometry x="1233" y="-244" width="29" height="1582" as="geometry" />
        </mxCell>
        <mxCell id="O_zw_P4l1oHPS-b11njr-51" value="&lt;b&gt;Advisor&lt;/b&gt;" style="text;html=1;align=center;verticalAlign=middle;resizable=0;points=[];autosize=1;strokeColor=none;fillColor=none;" vertex="1" parent="1">
          <mxGeometry x="1216.5" y="-202" width="63" height="26" as="geometry" />
        </mxCell>
        <mxCell id="O_zw_P4l1oHPS-b11njr-52" value="&lt;font style=&quot;font-size: 12px;&quot;&gt;CheckSectionState()&lt;/font&gt;" style="html=1;verticalAlign=bottom;startArrow=oval;startFill=1;endArrow=block;startSize=8;curved=0;rounded=0;" edge="1" parent="1" target="ME21M69Lr1BE-cVbZ2gV-43">
          <mxGeometry width="60" relative="1" as="geometry">
            <mxPoint x="285" y="722" as="sourcePoint" />
            <mxPoint x="860" y="722" as="targetPoint" />
          </mxGeometry>
        </mxCell>
        <mxCell id="O_zw_P4l1oHPS-b11njr-54" value="loop" style="shape=umlFrame;whiteSpace=wrap;html=1;pointerEvents=0;" vertex="1" parent="1">
          <mxGeometry x="-177" y="680" width="1452" height="247" as="geometry" />
        </mxCell>
        <mxCell id="O_zw_P4l1oHPS-b11njr-55" value="alt" style="shape=umlFrame;whiteSpace=wrap;html=1;pointerEvents=0;" vertex="1" parent="1">
          <mxGeometry x="-139" y="736" width="1403" height="137" as="geometry" />
        </mxCell>
        <mxCell id="O_zw_P4l1oHPS-b11njr-56" value="" style="line;strokeWidth=1;fillColor=none;align=left;verticalAlign=middle;spacingTop=-1;spacingLeft=3;spacingRight=3;rotatable=0;labelPosition=right;points=[];portConstraint=eastwest;strokeColor=inherit;dashed=1;" vertex="1" parent="1">
          <mxGeometry x="-139" y="795" width="1395" height="8" as="geometry" />
        </mxCell>
        <mxCell id="O_zw_P4l1oHPS-b11njr-57" value="state == true" style="text;html=1;align=center;verticalAlign=middle;resizable=0;points=[];autosize=1;strokeColor=none;fillColor=none;" vertex="1" parent="1">
          <mxGeometry x="-78" y="736" width="85" height="26" as="geometry" />
        </mxCell>
        <mxCell id="O_zw_P4l1oHPS-b11njr-59" value="state == false" style="text;html=1;align=center;verticalAlign=middle;resizable=0;points=[];autosize=1;strokeColor=none;fillColor=none;" vertex="1" parent="1">
          <mxGeometry x="-139" y="799" width="90" height="26" as="geometry" />
        </mxCell>
        <mxCell id="O_zw_P4l1oHPS-b11njr-60" value="&lt;font style=&quot;font-size: 12px;&quot;&gt;approve()&lt;/font&gt;" style="html=1;verticalAlign=bottom;startArrow=oval;startFill=1;endArrow=block;startSize=8;curved=0;rounded=0;" edge="1" parent="1">
          <mxGeometry width="60" relative="1" as="geometry">
            <mxPoint x="1044" y="754.5000000000002" as="sourcePoint" />
            <mxPoint x="1243" y="754.5000000000002" as="targetPoint" />
          </mxGeometry>
        </mxCell>
        <mxCell id="O_zw_P4l1oHPS-b11njr-61" value="" style="html=1;points=[[0,0,0,0,5],[0,1,0,0,-5],[1,0,0,0,5],[1,1,0,0,-5]];perimeter=orthogonalPerimeter;outlineConnect=0;targetShapes=umlLifeline;portConstraint=eastwest;newEdgeStyle={&quot;curved&quot;:0,&quot;rounded&quot;:0};" vertex="1" parent="1">
          <mxGeometry x="1243" y="705" width="10" height="162" as="geometry" />
        </mxCell>
        <mxCell id="O_zw_P4l1oHPS-b11njr-62" value="&lt;font style=&quot;font-size: 12px;&quot;&gt;changeState()&lt;/font&gt;" style="html=1;verticalAlign=bottom;startArrow=oval;startFill=1;endArrow=block;startSize=8;curved=0;rounded=0;" edge="1" parent="1">
          <mxGeometry width="60" relative="1" as="geometry">
            <mxPoint x="1243" y="778.0000000000002" as="sourcePoint" />
            <mxPoint x="1044" y="778.0000000000002" as="targetPoint" />
          </mxGeometry>
        </mxCell>
        <mxCell id="O_zw_P4l1oHPS-b11njr-63" value="&lt;font style=&quot;font-size: 12px;&quot;&gt;addToSystem()&lt;/font&gt;" style="html=1;verticalAlign=bottom;startArrow=oval;startFill=1;endArrow=block;startSize=8;curved=0;rounded=0;" edge="1" parent="1">
          <mxGeometry width="60" relative="1" as="geometry">
            <mxPoint x="1034" y="785" as="sourcePoint" />
            <mxPoint x="285" y="785" as="targetPoint" />
          </mxGeometry>
        </mxCell>
        <mxCell id="O_zw_P4l1oHPS-b11njr-64" value="&lt;font style=&quot;font-size: 12px;&quot;&gt;print success&lt;/font&gt;" style="html=1;verticalAlign=bottom;startArrow=oval;startFill=1;endArrow=block;startSize=8;curved=0;rounded=0;" edge="1" parent="1">
          <mxGeometry width="60" relative="1" as="geometry">
            <mxPoint x="275" y="791" as="sourcePoint" />
            <mxPoint x="-31" y="791" as="targetPoint" />
          </mxGeometry>
        </mxCell>
        <mxCell id="O_zw_P4l1oHPS-b11njr-66" value="return error" style="html=1;verticalAlign=bottom;endArrow=open;dashed=1;endSize=8;curved=0;rounded=0;" edge="1" parent="1">
          <mxGeometry relative="1" as="geometry">
            <mxPoint x="1034" y="832" as="sourcePoint" />
            <mxPoint x="285" y="832" as="targetPoint" />
          </mxGeometry>
        </mxCell>
        <mxCell id="O_zw_P4l1oHPS-b11njr-67" value="&lt;font style=&quot;font-size: 12px;&quot;&gt;print error&lt;/font&gt;" style="html=1;verticalAlign=bottom;startArrow=oval;startFill=1;endArrow=block;startSize=8;curved=0;rounded=0;" edge="1" parent="1">
          <mxGeometry width="60" relative="1" as="geometry">
            <mxPoint x="275" y="841" as="sourcePoint" />
            <mxPoint x="-31" y="841" as="targetPoint" />
          </mxGeometry>
        </mxCell>
        <mxCell id="O_zw_P4l1oHPS-b11njr-69" value="&lt;font style=&quot;font-size: 12px;&quot;&gt;createCourse()&lt;/font&gt;" style="html=1;verticalAlign=bottom;startArrow=oval;startFill=1;endArrow=block;startSize=8;curved=0;rounded=0;" edge="1" parent="1">
          <mxGeometry width="60" relative="1" as="geometry">
            <mxPoint x="454" y="-151" as="sourcePoint" />
            <mxPoint x="285" y="-151" as="targetPoint" />
          </mxGeometry>
        </mxCell>
        <mxCell id="O_zw_P4l1oHPS-b11njr-73" value="&lt;font style=&quot;font-size: 12px;&quot;&gt;CreateSection()&lt;/font&gt;" style="html=1;verticalAlign=bottom;startArrow=oval;startFill=1;endArrow=block;startSize=8;curved=0;rounded=0;" edge="1" parent="1">
          <mxGeometry width="60" relative="1" as="geometry">
            <mxPoint x="625" y="-122" as="sourcePoint" />
            <mxPoint x="1033.9999999999995" y="-122" as="targetPoint" />
          </mxGeometry>
        </mxCell>
        <mxCell id="O_zw_P4l1oHPS-b11njr-74" value="&lt;font style=&quot;font-size: 12px;&quot;&gt;addDatabase()&lt;/font&gt;" style="html=1;verticalAlign=bottom;startArrow=oval;startFill=1;endArrow=block;startSize=8;curved=0;rounded=0;" edge="1" parent="1">
          <mxGeometry width="60" relative="1" as="geometry">
            <mxPoint x="1033.9999999999995" y="-97" as="sourcePoint" />
            <mxPoint x="870" y="-97" as="targetPoint" />
          </mxGeometry>
        </mxCell>
        <mxCell id="O_zw_P4l1oHPS-b11njr-76" value="&lt;font style=&quot;font-size: 12px;&quot;&gt;CreateCourse()&lt;/font&gt;" style="html=1;verticalAlign=bottom;startArrow=oval;startFill=1;endArrow=block;startSize=8;curved=0;rounded=0;" edge="1" parent="1" source="O_zw_P4l1oHPS-b11njr-75" target="O_zw_P4l1oHPS-b11njr-70">
          <mxGeometry width="60" relative="1" as="geometry">
            <mxPoint x="319" y="-112" as="sourcePoint" />
            <mxPoint x="379" y="-112" as="targetPoint" />
          </mxGeometry>
        </mxCell>
        <mxCell id="O_zw_P4l1oHPS-b11njr-78" value="&lt;font color=&quot;#000000&quot;&gt;&lt;b&gt;Transcript&lt;/b&gt;&lt;/font&gt;" style="shape=umlLifeline;perimeter=lifelinePerimeter;whiteSpace=wrap;html=1;container=1;dropTarget=0;collapsible=0;recursiveResize=0;outlineConnect=0;portConstraint=eastwest;newEdgeStyle={&quot;curved&quot;:0,&quot;rounded&quot;:0};labelBackgroundColor=none;" vertex="1" parent="1">
          <mxGeometry x="1386" y="-244" width="100" height="1593" as="geometry" />
        </mxCell>
        <mxCell id="O_zw_P4l1oHPS-b11njr-83" value="" style="html=1;points=[[0,0,0,0,5],[0,1,0,0,-5],[1,0,0,0,5],[1,1,0,0,-5]];perimeter=orthogonalPerimeter;outlineConnect=0;targetShapes=umlLifeline;portConstraint=eastwest;newEdgeStyle={&quot;curved&quot;:0,&quot;rounded&quot;:0};" vertex="1" parent="O_zw_P4l1oHPS-b11njr-78">
          <mxGeometry x="46" y="1191" width="10" height="50" as="geometry" />
        </mxCell>
        <mxCell id="O_zw_P4l1oHPS-b11njr-91" value="" style="html=1;points=[[0,0,0,0,5],[0,1,0,0,-5],[1,0,0,0,5],[1,1,0,0,-5]];perimeter=orthogonalPerimeter;outlineConnect=0;targetShapes=umlLifeline;portConstraint=eastwest;newEdgeStyle={&quot;curved&quot;:0,&quot;rounded&quot;:0};" vertex="1" parent="O_zw_P4l1oHPS-b11njr-78">
          <mxGeometry x="45" y="1262" width="10" height="50" as="geometry" />
        </mxCell>
        <mxCell id="O_zw_P4l1oHPS-b11njr-94" value="&lt;font style=&quot;font-size: 12px;&quot;&gt;return &lt;font face=&quot;Aptos, sans-serif&quot;&gt;Gpa&lt;/font&gt;&lt;/font&gt;" style="html=1;verticalAlign=bottom;endArrow=open;dashed=1;endSize=8;curved=0;rounded=0;" edge="1" parent="O_zw_P4l1oHPS-b11njr-78">
          <mxGeometry relative="1" as="geometry">
            <mxPoint x="45" y="1302" as="sourcePoint" />
            <mxPoint x="-1101" y="1302" as="targetPoint" />
          </mxGeometry>
        </mxCell>
        <mxCell id="O_zw_P4l1oHPS-b11njr-113" value="" style="html=1;points=[[0,0,0,0,5],[0,1,0,0,-5],[1,0,0,0,5],[1,1,0,0,-5]];perimeter=orthogonalPerimeter;outlineConnect=0;targetShapes=umlLifeline;portConstraint=eastwest;newEdgeStyle={&quot;curved&quot;:0,&quot;rounded&quot;:0};" vertex="1" parent="O_zw_P4l1oHPS-b11njr-78">
          <mxGeometry x="46" y="1340" width="10" height="47" as="geometry" />
        </mxCell>
        <mxCell id="O_zw_P4l1oHPS-b11njr-116" value="" style="html=1;points=[[0,0,0,0,5],[0,1,0,0,-5],[1,0,0,0,5],[1,1,0,0,-5]];perimeter=orthogonalPerimeter;outlineConnect=0;targetShapes=umlLifeline;portConstraint=eastwest;newEdgeStyle={&quot;curved&quot;:0,&quot;rounded&quot;:0};" vertex="1" parent="O_zw_P4l1oHPS-b11njr-78">
          <mxGeometry x="46" y="1420" width="10" height="56" as="geometry" />
        </mxCell>
        <mxCell id="O_zw_P4l1oHPS-b11njr-84" value="&lt;span style=&quot;font-size: 12px; line-height: 115%; font-family: Aptos, sans-serif;&quot;&gt;viewTranscript()&lt;/span&gt;" style="html=1;verticalAlign=bottom;startArrow=oval;startFill=1;endArrow=block;startSize=8;curved=0;rounded=0;" edge="1" parent="1">
          <mxGeometry width="60" relative="1" as="geometry">
            <mxPoint x="-31" y="951.9999999999995" as="sourcePoint" />
            <mxPoint x="277" y="951.9999999999995" as="targetPoint" />
          </mxGeometry>
        </mxCell>
        <mxCell id="O_zw_P4l1oHPS-b11njr-85" value="&lt;span style=&quot;line-height: 115%;&quot;&gt;&lt;font style=&quot;font-size: 12px;&quot;&gt;viewTranscript&lt;/font&gt;&lt;/span&gt;&lt;span style=&quot;font-size:12.0pt;line-height:115%;&lt;br/&gt;font-family:&amp;quot;Aptos&amp;quot;,sans-serif;mso-ascii-theme-font:minor-latin;mso-fareast-font-family:&lt;br/&gt;Aptos;mso-fareast-theme-font:minor-latin;mso-hansi-theme-font:minor-latin;&lt;br/&gt;mso-bidi-font-family:&amp;quot;Times New Roman&amp;quot;;mso-bidi-theme-font:minor-bidi;&lt;br/&gt;mso-ansi-language:TR;mso-fareast-language:EN-US;mso-bidi-language:AR-SA&quot;&gt;()&lt;/span&gt;" style="html=1;verticalAlign=bottom;startArrow=oval;startFill=1;endArrow=block;startSize=8;curved=0;rounded=0;" edge="1" parent="1" source="O_zw_P4l1oHPS-b11njr-82">
          <mxGeometry width="60" relative="1" as="geometry">
            <mxPoint x="287" y="962" as="sourcePoint" />
            <mxPoint x="1433" y="962" as="targetPoint" />
          </mxGeometry>
        </mxCell>
        <mxCell id="O_zw_P4l1oHPS-b11njr-86" value="&lt;font style=&quot;font-size: 12px;&quot;&gt;return&amp;nbsp;&lt;/font&gt;&lt;span style=&quot;font-size: 12px; line-height: 115%; font-family: Aptos, sans-serif;&quot;&gt;List&amp;lt;Transcript&amp;gt;&lt;/span&gt;" style="html=1;verticalAlign=bottom;endArrow=open;dashed=1;endSize=8;curved=0;rounded=0;" edge="1" parent="1">
          <mxGeometry relative="1" as="geometry">
            <mxPoint x="1433" y="987" as="sourcePoint" />
            <mxPoint x="287" y="987" as="targetPoint" />
          </mxGeometry>
        </mxCell>
        <mxCell id="O_zw_P4l1oHPS-b11njr-87" value="&lt;font style=&quot;font-size: 12px;&quot;&gt;return&amp;nbsp;&lt;/font&gt;&lt;span style=&quot;font-size: 12px; line-height: 115%; font-family: Aptos, sans-serif;&quot;&gt;List&amp;lt;Transcript&amp;gt;&lt;/span&gt;" style="html=1;verticalAlign=bottom;endArrow=open;dashed=1;endSize=8;curved=0;rounded=0;" edge="1" parent="1">
          <mxGeometry relative="1" as="geometry">
            <mxPoint x="277" y="994" as="sourcePoint" />
            <mxPoint x="-31" y="994" as="targetPoint" />
          </mxGeometry>
        </mxCell>
        <mxCell id="O_zw_P4l1oHPS-b11njr-89" value="" style="html=1;points=[[0,0,0,0,5],[0,1,0,0,-5],[1,0,0,0,5],[1,1,0,0,-5]];perimeter=orthogonalPerimeter;outlineConnect=0;targetShapes=umlLifeline;portConstraint=eastwest;newEdgeStyle={&quot;curved&quot;:0,&quot;rounded&quot;:0};" vertex="1" parent="1">
          <mxGeometry x="277" y="1013" width="10" height="60" as="geometry" />
        </mxCell>
        <mxCell id="O_zw_P4l1oHPS-b11njr-92" value="&lt;span style=&quot;font-size: 12px; line-height: 115%;&quot;&gt;viewGpa(term:&lt;br&gt;int):&amp;nbsp;&lt;/span&gt;" style="html=1;verticalAlign=bottom;startArrow=oval;startFill=1;endArrow=block;startSize=8;curved=0;rounded=0;" edge="1" parent="1">
          <mxGeometry width="60" relative="1" as="geometry">
            <mxPoint x="-30" y="1031.9999999999995" as="sourcePoint" />
            <mxPoint x="277" y="1031.9999999999995" as="targetPoint" />
          </mxGeometry>
        </mxCell>
        <mxCell id="O_zw_P4l1oHPS-b11njr-95" value="&lt;font style=&quot;font-size: 12px;&quot;&gt;return &lt;font face=&quot;Aptos, sans-serif&quot;&gt;Gpa&lt;/font&gt;&lt;/font&gt;" style="html=1;verticalAlign=bottom;endArrow=open;dashed=1;endSize=8;curved=0;rounded=0;" edge="1" parent="1">
          <mxGeometry relative="1" as="geometry">
            <mxPoint x="277" y="1066" as="sourcePoint" />
            <mxPoint x="-31" y="1066" as="targetPoint" />
          </mxGeometry>
        </mxCell>
        <mxCell id="O_zw_P4l1oHPS-b11njr-93" value="&lt;span style=&quot;font-size: 12px; line-height: 115%;&quot;&gt;viewGpa(term:&lt;br&gt;int):&amp;nbsp;&lt;/span&gt;" style="html=1;verticalAlign=bottom;startArrow=oval;startFill=1;endArrow=block;startSize=8;curved=0;rounded=0;" edge="1" parent="1">
          <mxGeometry x="-0.0004" width="60" relative="1" as="geometry">
            <mxPoint x="287" y="1035" as="sourcePoint" />
            <mxPoint x="1431" y="1035" as="targetPoint" />
            <mxPoint as="offset" />
          </mxGeometry>
        </mxCell>
        <mxCell id="O_zw_P4l1oHPS-b11njr-117" value="&lt;span style=&quot;font-size: 12px; line-height: 115%; font-family: Aptos, sans-serif;&quot;&gt;+&lt;br/&gt;viewSuccessedCourses()&amp;nbsp;&lt;/span&gt;" style="html=1;verticalAlign=bottom;startArrow=oval;startFill=1;endArrow=block;startSize=8;curved=0;rounded=0;" edge="1" parent="1">
          <mxGeometry width="60" relative="1" as="geometry">
            <mxPoint x="-30" y="1099" as="sourcePoint" />
            <mxPoint x="277" y="1099" as="targetPoint" />
          </mxGeometry>
        </mxCell>
        <mxCell id="O_zw_P4l1oHPS-b11njr-118" value="&lt;span style=&quot;font-size: 12px; line-height: 115%; font-family: Aptos, sans-serif;&quot;&gt;+&lt;br/&gt;viewSuccessedCourses()&amp;nbsp;&lt;/span&gt;" style="html=1;verticalAlign=bottom;startArrow=oval;startFill=1;endArrow=block;startSize=8;curved=0;rounded=0;" edge="1" parent="1">
          <mxGeometry width="60" relative="1" as="geometry">
            <mxPoint x="287" y="1106.5" as="sourcePoint" />
            <mxPoint x="1432" y="1106.5" as="targetPoint" />
          </mxGeometry>
        </mxCell>
        <mxCell id="O_zw_P4l1oHPS-b11njr-119" value="&lt;span style=&quot;font-size: 12px; line-height: 115%; font-family: Aptos, sans-serif;&quot;&gt;+&lt;br/&gt;viewFailedCourses()&amp;nbsp;&lt;/span&gt;" style="html=1;verticalAlign=bottom;startArrow=oval;startFill=1;endArrow=block;startSize=8;curved=0;rounded=0;" edge="1" parent="1">
          <mxGeometry x="0.0015" width="60" relative="1" as="geometry">
            <mxPoint x="-30" y="1185.0000000000005" as="sourcePoint" />
            <mxPoint x="275" y="1185.0000000000005" as="targetPoint" />
            <mxPoint as="offset" />
          </mxGeometry>
        </mxCell>
        <mxCell id="O_zw_P4l1oHPS-b11njr-120" value="&lt;span style=&quot;font-size: 12px; line-height: 115%; font-family: Aptos, sans-serif;&quot;&gt;+&lt;br/&gt;viewFailedCourses()&amp;nbsp;&lt;/span&gt;" style="html=1;verticalAlign=bottom;startArrow=oval;startFill=1;endArrow=block;startSize=8;curved=0;rounded=0;" edge="1" parent="1">
          <mxGeometry width="60" relative="1" as="geometry">
            <mxPoint x="285" y="1191" as="sourcePoint" />
            <mxPoint x="1432" y="1191" as="targetPoint" />
          </mxGeometry>
        </mxCell>
        <mxCell id="O_zw_P4l1oHPS-b11njr-121" value="&lt;font style=&quot;font-size: 12px;&quot;&gt;return&amp;nbsp;&lt;/font&gt;&lt;span style=&quot;font-size: 12px; line-height: 115%; font-family: Aptos, sans-serif;&quot;&gt;List&amp;lt;Course&amp;gt;&lt;/span&gt;" style="html=1;verticalAlign=bottom;endArrow=open;dashed=1;endSize=8;curved=0;rounded=0;" edge="1" parent="1">
          <mxGeometry relative="1" as="geometry">
            <mxPoint x="1432" y="1129.5" as="sourcePoint" />
            <mxPoint x="287" y="1129.5" as="targetPoint" />
          </mxGeometry>
        </mxCell>
        <mxCell id="O_zw_P4l1oHPS-b11njr-122" value="&lt;font style=&quot;font-size: 12px;&quot;&gt;return&amp;nbsp;&lt;/font&gt;&lt;span style=&quot;font-size: 12px; line-height: 115%; font-family: Aptos, sans-serif;&quot;&gt;List&amp;lt;Course&amp;gt;&lt;/span&gt;" style="html=1;verticalAlign=bottom;endArrow=open;dashed=1;endSize=8;curved=0;rounded=0;" edge="1" parent="1">
          <mxGeometry x="0.0009" relative="1" as="geometry">
            <mxPoint x="277.0000000000002" y="1137.5000000000002" as="sourcePoint" />
            <mxPoint x="-30" y="1137.5000000000002" as="targetPoint" />
            <mxPoint as="offset" />
          </mxGeometry>
        </mxCell>
        <mxCell id="O_zw_P4l1oHPS-b11njr-123" value="&lt;span style=&quot;font-size: 12px; line-height: 115%; font-family: Aptos, sans-serif;&quot;&gt;List&amp;lt;Course&amp;gt;&lt;/span&gt;" style="html=1;verticalAlign=bottom;endArrow=open;dashed=1;endSize=8;curved=0;rounded=0;" edge="1" parent="1">
          <mxGeometry x="0.0015" relative="1" as="geometry">
            <mxPoint x="275" y="1222.0000000000005" as="sourcePoint" />
            <mxPoint x="-30" y="1222.0000000000005" as="targetPoint" />
            <mxPoint as="offset" />
          </mxGeometry>
        </mxCell>
        <mxCell id="O_zw_P4l1oHPS-b11njr-124" value="&lt;span style=&quot;font-size: 12px; line-height: 115%; font-family: Aptos, sans-serif;&quot;&gt;List&amp;lt;Course&amp;gt;&lt;/span&gt;" style="html=1;verticalAlign=bottom;endArrow=open;dashed=1;endSize=8;curved=0;rounded=0;" edge="1" parent="1">
          <mxGeometry x="-0.0003" relative="1" as="geometry">
            <mxPoint x="1432" y="1215" as="sourcePoint" />
            <mxPoint x="285" y="1215" as="targetPoint" />
            <mxPoint as="offset" />
          </mxGeometry>
        </mxCell>
      </root>
    </mxGraphModel>
  </diagram>
</mxfile>
